<svg id="visual" viewBox="0 0 960 540" width="960" height="540" xmlns="http://www.w3.org/2000/svg" xmlns:xlink="http://www.w3.org/1999/xlink" version="1.1"><rect x="0" y="0" width="960" height="540" fill="#FFFFFF"></rect><defs><linearGradient id="grad1_0" x1="43.8%" y1="0%" x2="100%" y2="100%"><stop offset="14.444444444444446%" stop-color="#ffffff" stop-opacity="1"></stop><stop offset="85.55555555555554%" stop-color="#ffffff" stop-opacity="1"></stop></linearGradient></defs><defs><linearGradient id="grad2_0" x1="0%" y1="0%" x2="56.3%" y2="100%"><stop offset="14.444444444444446%" stop-color="#ffffff" stop-opacity="1"></stop><stop offset="85.55555555555554%" stop-color="#ffffff" stop-opacity="1"></stop></linearGradient></defs><g transform="translate(960, 0)"><path d="M0 270C-36.4 267.7 -72.7 265.4 -103.3 249.4C-133.9 233.5 -158.8 203.9 -174.7 174.7C-190.5 145.5 -197.2 116.7 -211.6 87.6C-225.9 58.6 -248 29.3 -270 0L0 0Z" fill="#0066FF"></path></g><g transform="translate(0, 540)"><path d="M0 -270C38.5 -269.1 77 -268.2 103.3 -249.4C129.7 -230.7 143.9 -194 168.3 -168.3C192.6 -142.6 227.1 -128 245.8 -101.8C264.4 -75.6 267.2 -37.8 270 0L0 0Z" fill="#0066FF"></path></g></svg>