<svg id="visual" viewBox="0 0 540 960" width="540" height="960" xmlns="http://www.w3.org/2000/svg" xmlns:xlink="http://www.w3.org/1999/xlink" version="1.1"><rect x="0" y="0" width="540" height="960" fill="#FFFFFF"></rect><defs><linearGradient id="grad1_0" x1="0%" y1="0%" x2="100%" y2="100%"><stop offset="30%" stop-color="#ffffff" stop-opacity="1"></stop><stop offset="70%" stop-color="#ffffff" stop-opacity="1"></stop></linearGradient></defs><defs><linearGradient id="grad2_0" x1="0%" y1="0%" x2="100%" y2="100%"><stop offset="30%" stop-color="#ffffff" stop-opacity="1"></stop><stop offset="70%" stop-color="#ffffff" stop-opacity="1"></stop></linearGradient></defs><g transform="translate(540, 0)"><path d="M0 297C-42.2 295.9 -84.3 294.9 -113.7 274.4C-143 253.9 -159.5 213.9 -185.3 185.3C-211 156.6 -245.9 139.2 -266.1 110.2C-286.2 81.2 -291.6 40.6 -297 0L0 0Z" fill="#0066FF"></path></g><g transform="translate(0, 960)"><path d="M0 -297C40.2 -294.7 80.4 -292.3 113.7 -274.4C146.9 -256.5 173.3 -222.9 190.9 -190.9C208.6 -158.9 217.5 -128.4 233.7 -96.8C250 -65.3 273.5 -32.6 297 0L0 0Z" fill="#0066FF"></path></g></svg>