<svg id="visual" viewBox="0 0 540 960" width="540" height="960" xmlns="http://www.w3.org/2000/svg" xmlns:xlink="http://www.w3.org/1999/xlink" version="1.1"><rect x="0" y="0" width="540" height="960" fill="#FFFFFF"></rect><defs><linearGradient id="grad1_0" x1="0%" y1="0%" x2="100%" y2="100%"><stop offset="30%" stop-color="#ffffff" stop-opacity="1"></stop><stop offset="70%" stop-color="#ffffff" stop-opacity="1"></stop></linearGradient></defs><defs><linearGradient id="grad2_0" x1="0%" y1="0%" x2="100%" y2="100%"><stop offset="30%" stop-color="#ffffff" stop-opacity="1"></stop><stop offset="70%" stop-color="#ffffff" stop-opacity="1"></stop></linearGradient></defs><g transform="translate(540, 0)"><path d="M0 297C-33.5 280.5 -67.1 263.9 -104.5 252.2C-141.9 240.5 -183.1 233.6 -210 210C-236.9 186.4 -249.4 146.1 -261.5 108.3C-273.6 70.5 -285.3 35.3 -297 0L0 0Z" fill="#0066FF"></path></g><g transform="translate(0, 960)"><path d="M0 -297C41.2 -295.3 82.4 -293.6 113.7 -274.4C144.9 -255.2 166.3 -218.4 188.1 -188.1C209.9 -157.8 232.1 -134 250.4 -103.7C268.6 -73.4 282.8 -36.7 297 0L0 0Z" fill="#0066FF"></path></g></svg>